<svg width="273" height="252" viewBox="0 0 273 252" fill="none" xmlns="http://www.w3.org/2000/svg">
<rect x="73" y="52" width="200" height="200" fill="#637788"/>
<path d="M98 87C98 81.4772 102.477 77 108 77H238C243.523 77 248 81.4772 248 87V217C248 222.523 243.523 227 238 227H108C102.477 227 98 222.523 98 217V87Z" fill="#D9D9D9"/>
<circle cx="122.5" cy="163.5" r="13.5" fill="#F17D58" fill-opacity="0.4"/>
<circle cx="222.5" cy="163.5" r="13.5" fill="#F17D58" fill-opacity="0.4"/>
<path d="M73 252V52.0344L40 34.0172L7 16V213.428L73 252Z" fill="#273745"/>
<rect x="32" y="93" width="23" height="89" fill="#637788"/>
<path d="M0 77H20L55 93H32L0 77Z" fill="#C0CBD4"/>
<path d="M32 182V93.0323L16 85.0161L0 77V164.839L32 182Z" fill="#273745"/>
<path d="M73 52L7 16H196L273 52H73Z" fill="#C0CBD4"/>
<path d="M121 21H196V46H121V21Z" fill="#637788"/>
<path d="M84 24.6047V0L121 21V46L84 24.6047Z" fill="#D9D9D9"/>
<path d="M84 24.6047V0L121 21V46L84 24.6047Z" fill="#273745"/>
<path d="M159 0H84L121 21H196L159 0Z" fill="#C0CBD4"/>
<path d="M159 0H84L121 21H196L159 0Z" fill="black" fill-opacity="0.2"/>
<path d="M159 0H84L121 21H196L159 0Z" stroke="black"/>
<path d="M217.524 123.318C217.674 122.857 218.326 122.857 218.476 123.318L222.86 136.811C223.328 138.253 224.672 139.229 226.189 139.229H240.376C240.861 139.229 241.062 139.849 240.67 140.134L229.192 148.473C227.965 149.365 227.452 150.944 227.921 152.387L232.305 165.88C232.455 166.341 231.927 166.724 231.535 166.439L220.057 158.1C218.831 157.208 217.169 157.208 215.943 158.1L204.465 166.439C204.073 166.724 203.545 166.341 203.695 165.88L208.079 152.387C208.548 150.944 208.035 149.365 206.808 148.473L195.33 140.134C194.938 139.849 195.139 139.229 195.624 139.229H209.811C211.328 139.229 212.672 138.253 213.14 136.811L217.524 123.318Z" fill="#EEE863" stroke="#273745" stroke-width="3"/>
<path d="M127.524 123.318C127.674 122.857 128.326 122.857 128.476 123.318L132.86 136.811C133.328 138.253 134.672 139.229 136.189 139.229H150.376C150.861 139.229 151.062 139.849 150.67 140.134L139.192 148.473C137.965 149.365 137.452 150.944 137.921 152.387L142.305 165.88C142.455 166.341 141.927 166.724 141.535 166.439L130.057 158.1C128.831 157.208 127.169 157.208 125.943 158.1L114.465 166.439C114.073 166.724 113.545 166.341 113.695 165.88L118.079 152.387C118.548 150.944 118.035 149.365 116.808 148.473L105.33 140.134C104.938 139.849 105.139 139.229 105.624 139.229H119.811C121.328 139.229 122.672 138.253 123.14 136.811L127.524 123.318Z" fill="#EEE863" stroke="#273745" stroke-width="3"/>
<rect x="153" y="155" width="39" height="9" fill="#EFEEEE"/>
<path d="M194 155C194 168.255 184.598 179 173 179C161.402 179 152 168.255 152 155" stroke="#273745" stroke-width="4" stroke-linecap="round"/>
<path d="M153 164H191" stroke="#273745" stroke-width="3" stroke-linecap="round"/>
<path d="M152 155H194" stroke="#273745" stroke-width="4" stroke-linecap="round"/>
</svg>
