<?xml version="1.0" encoding="UTF-8" standalone="no"?>
<svg
   xmlns:dc="http://purl.org/dc/elements/1.1/"
   xmlns:cc="http://creativecommons.org/ns#"
   xmlns:rdf="http://www.w3.org/1999/02/22-rdf-syntax-ns#"
   xmlns:svg="http://www.w3.org/2000/svg"
   xmlns="http://www.w3.org/2000/svg"
   xmlns:sodipodi="http://sodipodi.sourceforge.net/DTD/sodipodi-0.dtd"
   xmlns:inkscape="http://www.inkscape.org/namespaces/inkscape"
   width="1216.8743mm"
   height="166.36728mm"
   viewBox="0 0 1216.8743 166.36728"
   version="1.1"
   id="svg8"
   inkscape:version="1.0 (4035a4fb49, 2020-05-01)"
   sodipodi:docname="BCA_Finance.svg">
  <defs
     id="defs2" />
  <sodipodi:namedview
     id="base"
     pagecolor="#ffffff"
     bordercolor="#666666"
     borderopacity="1.0"
     inkscape:pageopacity="0.0"
     inkscape:pageshadow="2"
     inkscape:zoom="0.04"
     inkscape:cx="1144.1833"
     inkscape:cy="1852.3789"
     inkscape:document-units="mm"
     inkscape:current-layer="layer1"
     inkscape:document-rotation="0"
     showgrid="false"
     inkscape:window-width="1366"
     inkscape:window-height="715"
     inkscape:window-x="-8"
     inkscape:window-y="-8"
     inkscape:window-maximized="1" />
  <metadata
     id="metadata5">
    <rdf:RDF>
      <cc:Work
         rdf:about="">
        <dc:format>image/svg+xml</dc:format>
        <dc:type
           rdf:resource="http://purl.org/dc/dcmitype/StillImage" />
        <dc:title></dc:title>
      </cc:Work>
    </rdf:RDF>
  </metadata>
  <g
     transform="translate(8932.9821,3255.8718)"
     inkscape:label="Layer 1"
     inkscape:groupmode="layer"
     id="layer1">
    <g
       style="fill:#0060af;fill-opacity:1"
       id="g991"
       transform="matrix(0.53084135,0,0,0.53084135,-8932.9821,-3255.8718)">
      <path
         id="path959"
         style="fill:#0060af;fill-opacity:1;fill-rule:nonzero;stroke:none"
         d="m 147.34669,237.88336 c 0,-12.4911 0.13562,-45.8787 -0.17228,-49.99236 0.26842,-49.68172 -35.85414,-84.72767 -58.674773,-81.99559 -15.79108,1.37038 -29.025179,7.8093 -36.131016,26.33267 -6.585974,17.26296 -0.697885,40.22487 21.198868,45.61295 23.413963,5.78646 37.086001,10.60092 46.980501,17.39303 12.12372,8.3152 22.02105,24.2022 22.28381,42.669"
         inkscape:connector-curvature="0" />
      <path
         id="path961"
         style="fill:#0060af;fill-opacity:1;fill-rule:nonzero;stroke:none"
         d="m 156.69305,313.40296 c -41.28452,0 -83.71334,-10.1684 -126.085648,-30.2796 l -1.039728,-0.5113 -0.497275,-1.0595 C 10.055561,241.41496 0,197.51416 0,154.56275 0,111.67615 9.6430481,69.654125 28.67202,29.570445 l 0.522703,-1.06518 1.05952,-0.53118 C 69.45081,9.4056654 111.61685,-4.4667969e-5 155.61942,-4.4667969e-5 c 40.99069,0 84.7672,10.470869667969 126.57727,30.333339667969 l 1.07365,0.47749 0.49444,1.08494 c 19.37931,40.87763 29.59874,84.767165 29.59874,127.006815 0,42.07562 -9.81258,84.13432 -29.2145,124.98642 l -0.51139,1.0737 -1.07929,0.4974 c -38.5976,18.2716 -82.12548,27.9429 -125.86529,27.9429 M 34.529044,277.61956 c 41.163036,19.3623 82.215886,29.1411 122.164006,29.1411 42.3582,0 84.4847,-9.259 121.98321,-26.8101 18.62776,-39.5866 28.07019,-80.3286 28.07019,-121.04802 0,-40.88347 -9.85493,-83.411095 -28.49683,-123.085165 -40.57537,-19.0742 -82.95049,-29.1890696 -122.6302,-29.1890696 -42.60116,0 -83.43363,9.0355796 -121.446374,26.8609396 C 15.926699,72.341065 6.6396702,113.05204 6.6396702,154.56275 c 0,41.58951 9.6515028,84.13431 27.8893738,123.05681"
         inkscape:connector-curvature="0" />
      <path
         id="path963"
         style="fill:#0060af;fill-opacity:1;fill-rule:nonzero;stroke:none"
         d="m 137.56237,237.90306 c 0.0763,-16.0114 -8.86041,-30.1694 -20.54055,-37.7782 -10.36068,-6.7244 -24.270055,-11.1434 -46.70926,-16.83366 -6.936336,-1.77427 -14.191926,-5.71569 -16.438108,-10.73929 -5.941786,5.98692 -7.021076,19.44705 -5.97569,27.31295 1.21493,9.1034 11.852506,24.1062 27.869603,24.694 9.781485,0.3926 22.148198,-2.1051 28.078685,-3.365 10.23073,-2.2096 26.41735,4.1984 28.9941,16.6895"
         inkscape:connector-curvature="0" />
      <path
         id="path965"
         style="fill:#0060af;fill-opacity:1;fill-rule:nonzero;stroke:none"
         d="m 155.61942,28.465705 c -27.15761,0 -50.61679,17.91012 -50.53203,48.90172 0.0848,26.061425 21.04348,40.013175 28.52227,49.978385 11.30153,15.01678 17.4185,32.79128 18.05421,59.98852 0.49444,21.64533 0.46901,43.01923 0.5792,50.59413 h 5.99548 c -0.10447,-7.9252 -0.37579,-30.6158 -0.0651,-51.26375 0.40685,-27.20571 6.7442,-44.30212 18.05139,-59.3189 7.54378,-9.96521 28.48553,-23.91696 28.53075,-49.978385 0.10171,-30.9916 -23.34334,-48.90172 -50.47836,-48.90172"
         inkscape:connector-curvature="0" />
      <path
         id="path967"
         style="fill:#0060af;fill-opacity:1;fill-rule:nonzero;stroke:none"
         d="m 162.51335,237.88336 c 0,-12.4911 -0.14134,-45.8787 0.16105,-49.99236 -0.26558,-49.68172 35.83437,-84.72767 58.67478,-81.99559 15.79108,1.37038 29.01106,7.8093 36.13669,26.33267 6.58032,17.26296 0.6583,40.22487 -21.213,45.61295 -23.42528,5.78646 -37.08037,10.60092 -47.00029,17.39303 -12.10961,8.3152 -21.31472,24.2022 -21.59725,42.669"
         inkscape:connector-curvature="0" />
      <path
         id="path969"
         style="fill:#0060af;fill-opacity:1;fill-rule:nonzero;stroke:none"
         d="m 172.29202,237.90306 c -0.0848,-16.0114 8.84911,-30.1694 20.49535,-37.7782 10.40306,-6.7244 24.32939,-11.1434 46.74882,-16.83366 6.95045,-1.77427 14.19756,-5.71569 16.40418,-10.73929 5.97006,5.98692 7.04653,19.44705 6.00112,27.31295 -1.24034,9.1034 -11.84967,24.1062 -27.83852,24.694 -9.77866,0.3926 -22.21035,-2.1051 -28.11541,-3.365 -10.19116,-2.2096 -26.423,4.1984 -29.01106,16.6895"
         inkscape:connector-curvature="0" />
      <path
         id="path971"
         style="fill:#0060af;fill-opacity:1;fill-rule:nonzero;stroke:none"
         d="m 180.66928,289.59346 -3.47522,-25.3577 8.38857,-1.2714 c 2.04276,-0.2798 4.52909,0.076 5.52362,1.3561 1.09908,1.3363 1.43531,2.4412 1.64721,4.1928 0.31644,2.1671 -0.3108,4.6733 -2.75193,5.9221 v 0.076 c 2.7265,0 4.3737,1.958 4.85118,5.2637 0.0706,0.6978 0.27689,2.3846 0.0706,3.7916 -0.55379,3.3481 -2.55132,4.4246 -5.92201,4.8965 z m 5.39931,-4.5403 c 0.99453,-0.142 2.00319,-0.1949 2.79148,-0.698 1.20645,-0.7883 1.09626,-2.475 0.92956,-3.7265 -0.42099,-2.752 -1.13863,-3.7973 -4.05726,-3.3651 l -1.83367,0.2825 1.16123,7.6483 z m -1.75738,-11.717 c 1.11038,-0.1801 2.61629,-0.3136 3.24353,-1.3674 0.32775,-0.7035 0.74874,-1.263 0.47185,-2.8283 -0.34187,-1.8563 -0.95781,-3.0061 -3.31418,-2.5598 l -2.19533,0.3533 0.86457,6.4984"
         inkscape:connector-curvature="0" />
      <path
         id="path973"
         style="fill:#0060af;fill-opacity:1;fill-rule:nonzero;stroke:none"
         d="m 217.00657,274.34206 c 0.065,0.4719 0.14134,0.9974 0.16952,1.4691 0.67809,4.6253 -0.16952,8.4537 -5.36823,9.5075 -7.68505,1.4806 -9.15709,-3.2944 -10.51043,-9.9792 l -0.72047,-3.6165 c -1.05952,-6.3968 -1.51442,-11.2394 5.9785,-12.7312 4.22395,-0.7713 7.01544,0.9097 8.17668,5.1139 0.18075,0.6272 0.40685,1.2489 0.49161,1.8789 l -4.59691,0.9494 c -0.53116,-1.5794 -1.23468,-4.4019 -3.30286,-4.1646 -3.71256,0.4463 -2.48636,5.0658 -2.10493,6.9956 l 1.38161,6.942 c 0.41533,2.0993 1.24036,5.4529 4.45282,4.8059 2.60782,-0.5227 1.47202,-4.5856 1.24034,-6.2496"
         inkscape:connector-curvature="0" />
      <path
         id="path975"
         style="fill:#0060af;fill-opacity:1;fill-rule:nonzero;stroke:none"
         d="m 224.38364,282.01576 -1.59068,-26.2422 6.17628,-1.8845 12.94875,22.8236 -4.8625,1.4549 -3.06836,-5.8004 -5.39932,1.6217 0.69789,6.5944 z m 3.75212,-12.265 3.90185,-1.1301 -5.18175,-10.6179"
         inkscape:connector-curvature="0" />
      <path
         id="path977"
         style="fill:#0060af;fill-opacity:1;fill-rule:nonzero;stroke:none"
         d="m 71.835428,262.17606 c 1.932564,-6.1876 3.66454,-10.7423 11.038775,-8.7192 3.947071,1.1019 6.393862,2.8422 6.278014,7.4278 -0.01907,1.0201 -0.355999,2.0597 -0.576379,3.0684 l -4.591259,-1.2685 c 0.601808,-2.5316 0.983235,-4.5404 -2.135991,-5.501 -3.605185,-0.9889 -4.483866,3.382 -4.981141,5.2692 l -1.867573,6.8799 c -0.593331,2.0428 -1.305328,5.419 1.867573,6.2893 2.621951,0.7063 4.21265,-1.8675 5.16198,-5.6254 l -3.212464,-0.8504 1.110377,-3.981 7.552256,2.4299 -3.585415,13.2595 -3.475224,-0.9437 0.782625,-2.8028 h -0.09896 c -1.599155,2.2915 -3.551489,2.5316 -5.260854,2.2038 -7.552256,-2.0428 -6.763973,-6.9786 -4.96137,-13.5731"
         inkscape:connector-curvature="0" />
      <path
         id="path979"
         style="fill:#0060af;fill-opacity:1;fill-rule:nonzero;stroke:none"
         d="m 99.945183,273.37576 -2.274429,10.7874 -5.119598,-1.1076 5.455826,-25.1884 8.727598,1.9722 c 5.10831,1.1019 6.65097,3.3763 5.92768,8.0581 -0.41252,2.6869 -1.73761,5.5828 -4.97269,5.3484 l -0.0339,-0.044 c 2.73498,0.9578 2.96665,2.3365 2.48917,4.7213 -0.20618,1.0141 -1.62742,7.1708 -0.64703,8.1652 l 0.0339,0.7544 -5.2976,-1.3816 c -0.22038,-1.7064 0.52836,-4.7748 0.82502,-6.473 0.29949,-1.503 0.77697,-3.6221 -0.74874,-4.4188 -1.19513,-0.6358 -1.63871,-0.6046 -2.98924,-0.9155 z m 0.873047,-3.9018 3.44697,0.9295 c 2.09361,0.3023 3.25767,-0.7826 3.67018,-3.3113 0.37295,-2.3197 -0.11019,-3.2266 -1.98908,-3.6759 l -3.6956,-0.7486"
         inkscape:connector-curvature="0" />
      <path
         id="path981"
         style="fill:#0060af;fill-opacity:1;fill-rule:nonzero;stroke:none"
         d="m 132.78181,263.49536 5.06311,0.5878 -2.18121,17.7067 c -1.05952,5.614 -3.22942,8.0693 -9.4057,7.3007 -6.28367,-0.794 -7.77547,-3.656 -7.39405,-9.3153 l 2.19533,-17.6925 5.10265,0.5849 -2.18967,17.2969 c -0.23168,1.8789 -0.6668,4.6618 2.67565,4.9981 2.96381,0.2261 3.63627,-1.7376 3.96966,-4.1787"
         inkscape:connector-curvature="0" />
      <path
         id="path983"
         style="fill:#0060af;fill-opacity:1;fill-rule:nonzero;stroke:none"
         d="m 143.42787,290.05966 1.52289,-25.3211 9.72781,0.4211 c 4.59689,0.2259 5.80051,3.9808 5.65641,7.5635 -0.13286,2.1783 -0.81371,4.611 -2.71237,5.9305 -1.55679,1.1216 -3.55717,1.3871 -5.41344,1.2969 l -3.17009,-0.1759 -0.63287,10.6121 z m 5.75531,-14.1467 2.57675,0.1441 c 2.09361,0.076 3.48088,-0.7515 3.6617,-3.8255 0.10171,-2.9525 -1.0143,-3.4526 -3.72667,-3.5713 l -2.04275,-0.07"
         inkscape:connector-curvature="0" />
      <path
         id="path985"
         style="fill:#0060af;fill-opacity:1;fill-rule:nonzero;stroke:none"
         d="m 829.5219,52.939205 -38.66259,70.174035 c -14.5931,-11.84967 -32.41283,-20.57163 -55.1487,-20.57163 -53.80382,0 -75.65817,40.10642 -75.65817,68.35745 0,20.97 13.73137,51.9107 61.60471,51.9107 20.09415,0 48.66161,-13.9799 56.88348,-20.3398 l -38.23876,81.4135 c -18.22657,3.6363 -24.21356,5.8909 -39.64298,6.3684 -85.68547,2.557 -120.31057,-50.0799 -120.28514,-103.86686 0.0566,-71.10373 63.27451,-157.577415 168.07371,-157.577415 6.42209,0 14.27667,2.22076 20.9926,4.68166 l 6.78658,-8.67958"
         inkscape:connector-curvature="0" />
      <path
         id="path987"
         style="fill:#0060af;fill-opacity:1;fill-rule:nonzero;stroke:none"
         d="M 989.05162,27.010645 1000,282.06386 h -81.47846 l -0.0481,-43.7427 h -55.55839 l -18.28589,43.7427 h -88.36393 l 92.38163,-182.129935 -20.83157,-0.13562 39.58083,-72.78766 z m -71.10645,78.025925 -31.41264,74.18607 h 32.35913"
         inkscape:connector-curvature="0" />
      <path
         id="path989"
         style="fill:#0060af;fill-opacity:1;fill-rule:nonzero;stroke:none"
         d="m 528.93477,27.010645 c 40.34935,0.22602 63.15021,22.12841 63.15021,53.76716 0,29.166455 -24.04686,54.984825 -50.44445,68.334775 27.1774,9.99042 29.52811,34.51491 29.52811,51.86558 0,41.9174 -42.06151,81.0857 -96.73556,81.0857 H 355.19617 l 46.51149,-179.59282 -19.10526,-0.11019 39.05531,-75.350205 c 0,0 74.46586,-0.22604 107.27706,0 M 489.3483,130.41969 c 8.3462,0 23.08339,-2.11332 26.7677,-18.26612 4.03747,-17.534195 -9.79278,-18.006105 -16.42679,-18.006105 l -23.70499,-0.10383 -8.26707,36.376905 z m -33.51472,45.07069 -10.91448,41.91738 h 27.91199 c 10.98228,0 25.94835,-5.4502 29.61569,-19.0911 3.62216,-13.68051 -6.84026,-22.82628 -17.78298,-22.82628"
         inkscape:connector-curvature="0" />
    </g>
    <g
       transform="translate(-8431.2745,-3293.813)"
       style="fill:#00a6b5;fill-opacity:1"
       id="g1000">
      <path
         style="fill:#00a6b5;fill-opacity:1;stroke-width:0.264583"
         d="m 374.88279,186.5218 c 0.0749,-0.25466 3.95324,-21.9538 8.61859,-48.22031 4.66537,-26.26651 8.54345,-48.025187 8.61798,-48.352609 l 0.13552,-0.595312 h 17.08161 17.0816 l -0.14946,0.727604 c -0.25794,1.255718 -2.53841,15.097467 -2.53841,15.407347 0,0.16222 1.22692,-0.81219 2.72653,-2.16532 9.14524,-8.252144 18.53806,-13.395004 27.15186,-14.866495 5.3871,-0.920274 12.89693,-0.377454 17.92428,1.295588 6.98926,2.325944 11.22039,5.715638 13.85945,11.103187 3.28891,6.71418 3.63379,13.78913 1.30953,26.86267 -0.79888,4.4935 -10.31957,59.09776 -10.31957,59.18605 0,0.0444 -8.33665,0.0806 -18.52589,0.0806 h -18.52586 l 0.1391,-0.59531 c 0.16356,-0.70019 6.93242,-36.46302 7.9248,-41.87031 1.20972,-6.59165 2.26501,-14.492 2.26179,-16.93297 -0.005,-3.70215 -1.00367,-6.61503 -2.7064,-7.89294 -1.29122,-0.96909 -3.44424,-1.98493 -5.14681,-2.42837 -4.24175,-1.10485 -9.98551,0.31271 -13.37201,3.3002 -2.59535,2.28954 -5.49402,7.56848 -6.9314,12.62314 -0.48779,1.71526 -10.20482,52.81332 -10.20482,53.66303 0,0.0735 -8.22333,0.13353 -18.27408,0.13353 -17.27936,0 -18.26668,-0.0251 -18.13793,-0.46302 z"
         id="path915" />
      <path
         style="fill:#00a6b5;fill-opacity:1;stroke-width:0.264583"
         d="m 150.42277,186.91868 c 0.004,-0.0364 3.91125,-21.97365 8.68296,-48.74948 l 8.67579,-48.68334 17.13238,-0.06808 c 16.23569,-0.06452 17.12548,-0.04375 17.00068,0.396875 -0.36534,1.290005 -2.57988,15.473265 -2.43809,15.615055 0.0906,0.0906 0.78685,-0.43961 1.54723,-1.17825 4.40413,-4.278149 10.92166,-8.955294 16.28537,-11.686821 6.25682,-3.186338 11.5692,-4.535033 17.85279,-4.532424 13.26168,0.0055 22.87209,5.174615 26.55007,14.280405 2.52819,6.25915 2.7079,13.27251 0.64082,25.00866 -2.55416,14.50136 -10.33714,59.24696 -10.33714,59.42965 0,0.13325 -7.97846,0.23389 -18.54187,0.23389 h -18.54184 l 0.15174,-0.7276 c 0.70934,-3.40122 7.74972,-40.91776 8.35392,-44.51615 1.44518,-8.60668 1.92231,-12.67669 1.78345,-15.21354 -0.2327,-4.2522 -1.51238,-6.46531 -4.65595,-8.0522 -2.49243,-1.25817 -4.56848,-1.68778 -7.31091,-1.51286 -6.55352,0.41802 -10.82667,3.69488 -14.16953,10.86596 -1.86388,3.99836 -2.52229,6.94251 -7.38489,33.02183 -2.6244,14.07533 -4.77163,25.71369 -4.77163,25.86302 0,0.18304 -5.95021,0.27154 -18.25625,0.27154 -10.04093,0 -18.25302,-0.0298 -18.2491,-0.0661 z"
         id="path913" />
      <path
         style="fill:#00a6b5;fill-opacity:1;stroke-width:0.264583"
         d="m 102.31868,186.5218 c 0.0654,-0.25466 3.85726,-22.10263 8.42627,-48.55104 l 8.30731,-48.088025 h 17.81937 17.81937 l -0.15147,0.727605 c -0.0833,0.400182 -3.78648,21.92073 -8.22926,47.82344 -4.44278,25.90271 -8.14401,47.42326 -8.22494,47.82344 l -0.14717,0.7276 h -17.86921 c -16.88722,0 -17.86269,-0.0254 -17.75027,-0.46302 z"
         id="path911" />
      <path
         style="fill:#00a6b5;fill-opacity:1;stroke-width:0.264583"
         d="m 43.65471,186.65409 c 0.07744,-0.32742 2.759922,-15.71625 5.961036,-34.19739 3.201141,-18.48115 5.887932,-33.92951 5.970667,-34.32969 l 0.150416,-0.72761 H 48.81562 41.89441 l 0.150601,-0.7276 c 0.08281,-0.40018 1.107467,-6.32354 2.276951,-13.16302 1.169512,-6.839482 2.192232,-12.762841 2.272718,-13.163024 l 0.146315,-0.727604 h 6.985397 6.985397 l 0.126921,-0.595313 c 0.0698,-0.327421 0.259715,-1.309687 0.42201,-2.182812 2.093013,-11.259686 6.633608,-21.368796 12.007957,-26.734311 4.367371,-4.360222 11.352927,-7.422304 19.996944,-8.765562 4.188143,-0.650824 15.452359,-0.656174 20.877189,-0.0099 4.88172,0.581562 10.70729,1.509588 11.1348,1.773801 0.2489,0.153828 -0.59076,2.969829 -3.36391,11.28195 l -3.69559,11.076954 -3.94343,-0.08756 c -7.1468,-0.158684 -10.06991,0.577255 -12.54461,3.158316 -2.066982,2.15582 -2.795142,4.078999 -3.821223,10.092264 l -0.16928,0.992188 h 9.007823 c 7.89373,0 9.00782,0.04987 9.00782,0.403238 0,0.340921 -4.22146,24.497495 -4.65725,26.650405 l -0.1473,0.72761 h -9.17326 -9.173237 l -6.43681,34.46068 c -3.540231,18.95338 -6.495071,34.66905 -6.566271,34.92371 -0.121655,0.43516 -1.211289,0.46302 -18.108322,0.46302 H 43.513872 l 0.140838,-0.59531 z"
         id="path899" />
      <path
         id="path895"
         style="fill:#00a6b5;fill-opacity:1;stroke-width:0.264583"
         d="m 286.16004,189.07957 c -6.26562,-0.60335 -10.3356,-2.10957 -14.96213,-5.5372 -3.45885,-2.56254 -5.77765,-5.20374 -7.39402,-8.42211 -2.41223,-4.8029 -2.45848,-12.58385 -0.1147,-19.2958 3.16281,-9.05743 11.00387,-16.50796 21.04036,-19.99242 4.26196,-1.47965 9.04086,-2.5782 24.30378,-5.58681 17.75166,-3.49917 21.78277,-4.41759 25.1755,-5.73572 4.64487,-1.80461 5.72992,-2.96465 5.71026,-6.10481 -0.018,-2.89586 -1.46973,-5.11923 -4.27757,-6.55166 -2.95201,-1.50601 -9.08931,-1.89818 -13.32796,-0.85164 -6.38522,1.57652 -11.82394,5.2751 -13.85919,9.42491 -0.69374,1.41451 -0.78791,1.49865 -1.53525,1.37212 -0.43791,-0.0741 -8.14832,-1.00004 -17.13423,-2.05761 -14.56928,-1.71468 -16.33802,-1.97241 -16.33802,-2.38051 0,-0.25169 0.31252,-1.32791 0.6945,-2.39162 2.57596,-7.17328 7.75028,-13.32206 15.60439,-18.543057 7.07382,-4.702329 13.63567,-6.957124 24.20511,-8.317426 4.43164,-0.570357 23.37496,-0.645996 29.08142,-0.116118 6.98246,0.648364 15.39049,2.813071 20.09296,5.17307 4.23534,2.125597 7.93745,5.349915 9.44703,8.227871 2.22641,4.24457 3.4436,10.5125 3.15989,16.27187 -0.33287,6.75749 -1.20224,12.41396 -5.18464,33.73438 -2.92129,15.63952 -3.4303,18.91263 -3.62231,23.2937 -0.16322,3.72359 0.23781,7.02472 1.24278,10.23054 0.28712,0.91594 0.52358,1.75464 0.52546,1.86378 0.003,0.10914 -7.72253,0.19844 -17.16538,0.19844 h -17.16876 l -0.54313,-1.15544 c -0.67469,-1.43533 -1.29755,-4.52284 -1.59674,-7.91495 -0.12557,-1.42346 -0.29268,-2.65251 -0.37142,-2.73122 -0.0787,-0.0787 -1.30138,0.83074 -2.71703,2.02099 -5.03206,4.23085 -9.23502,6.58699 -15.35189,8.60619 -8.64696,2.85435 -19.0876,4.08982 -27.61907,3.26826 z m 31.07537,-21.73208 c 2.68121,-0.95605 6.36693,-2.86909 8.23757,-4.27559 0.89265,-0.67119 2.64948,-2.29902 3.90408,-3.61738 2.68132,-2.8176 4.23058,-5.68823 5.29304,-9.80747 0.67416,-2.61366 1.55962,-7.91665 1.35589,-8.12038 -0.10631,-0.10631 -4.37023,0.96634 -16.67391,4.19457 -11.94269,3.13351 -17.71933,6.43909 -19.04323,10.8971 -0.47837,1.61087 -0.52837,4.88659 -0.0966,6.32778 0.42547,1.42015 1.88232,3.03141 3.46694,3.83439 2.16106,1.09509 4.14785,1.41685 8.13223,1.31694 2.98879,-0.0749 3.87422,-0.19735 5.42396,-0.74996 z" />
      <path
         id="path891"
         style="fill:#00a6b5;fill-opacity:1;stroke-width:0.264583"
         d="m 642.93751,189.34775 c -8.11686,-0.46958 -15.00743,-2.26896 -21.28483,-5.55823 -6.50867,-3.41051 -12.44807,-9.40946 -15.68292,-15.84024 -1.82073,-3.61957 -3.75689,-10.49607 -3.15486,-11.20476 0.14867,-0.17499 6.1686,-4.60441 13.37768,-9.84316 7.20905,-5.23875 13.0802,-9.64803 13.047,-9.79842 -0.0332,-0.15039 -4.28713,-4.24476 -9.45312,-9.09865 -5.16599,-4.85389 -9.61644,-9.03576 -9.88986,-9.29307 -0.48445,-0.45587 -0.47138,-0.5107 0.51258,-2.14614 5.92304,-9.84485 18.59598,-19.9354 30.33512,-24.153666 20.858,-7.494985 42.15429,-6.373143 57.75571,3.042431 10.16857,6.136825 15.46826,15.502865 16.54638,29.242225 0.39695,5.05831 -0.19529,12.14192 -1.67952,20.08863 l -0.34592,1.85208 -37.22452,0.0671 -37.22455,0.0671 v 2.65607 c 0,3.74436 0.55986,6.22977 2.12312,9.42552 1.05903,2.16492 1.61354,2.95716 2.83771,4.05423 1.86407,1.67056 5.16943,3.31716 7.77473,3.87305 5.70008,1.21627 14.05485,-1.11014 18.07591,-5.03322 0.91099,-0.88881 1.83857,-1.89119 2.06129,-2.2275 l 0.40492,-0.6115 18.02598,1.29939 c 9.91429,0.71469 18.09923,1.37266 18.18873,1.46217 0.0895,0.0895 -0.83518,1.55861 -2.05491,3.26464 -10.41426,14.56642 -28.57762,23.66454 -48.51977,24.3038 -8.90746,0.28554 -11.21839,0.30303 -14.55208,0.1102 z m 35.16127,-59.66595 c 0.30692,-0.79978 0.14968,-7.13031 -0.22048,-8.87658 -0.94559,-4.46122 -3.81248,-7.91692 -7.64619,-9.21653 -3.88305,-1.3163 -8.69162,-1.31977 -12.63192,-0.009 -6.56588,2.18403 -12.45847,8.96699 -14.88324,17.13206 l -0.41238,1.38867 h 17.8168 c 16.00253,0 17.83316,-0.0426 17.97741,-0.41852 z" />
      <path
         style="fill:#00a6b5;fill-opacity:1;stroke-width:0.264583"
         d="m 533.53229,189.34475 c -9.18673,-0.53367 -18.31136,-2.63726 -24.1532,-5.56832 -5.67923,-2.84945 -10.5401,-7.40817 -14.61363,-13.70515 -3.32798,-5.14456 -5.14646,-11.55393 -5.14778,-18.14375 -0.003,-16.34622 4.32681,-29.61137 13.30055,-40.74584 2.44652,-3.03561 6.24901,-6.99018 8.63441,-8.9798 10.87324,-9.069042 27.91288,-14.695031 44.52096,-14.6995 11.74187,-0.0031 23.18372,2.466346 30.24307,6.527372 6.87025,3.952266 12.9182,11.412798 15.46768,19.080348 1.36927,4.11808 2.15132,9.64338 1.74675,12.34117 l -0.18121,1.20854 h -17.68007 -17.68004 l -0.10629,-1.65365 c -0.14404,-2.24107 -0.98062,-3.85225 -3.22969,-6.2199 -2.22837,-2.34593 -3.25673,-2.97961 -6.38296,-3.93322 -2.12993,-0.64973 -2.78614,-0.72623 -6.21771,-0.72488 -3.30896,0 -4.19309,0.0974 -6.43033,0.69869 -4.29906,1.15549 -6.29293,2.27322 -9.0478,5.07198 -3.32406,3.37707 -5.36866,7.06406 -7.54716,13.60983 -1.47206,4.42309 -2.10074,7.7761 -2.28764,12.20115 -0.18187,4.3052 0.17674,6.81577 1.45325,10.17418 2.60914,6.86441 13.16022,9.9712 22.88448,6.73839 3.66953,-1.21992 5.46071,-2.33032 8.27423,-5.12935 2.70124,-2.68732 4.2009,-4.81724 5.30559,-7.53536 l 0.59729,-1.46973 18.03445,-0.068 18.03443,-0.068 -0.18137,0.72943 c -0.36973,1.48709 -2.32447,6.19516 -3.61786,8.71376 -8.71416,16.96902 -25.33317,27.8307 -47.26239,30.88931 -2.58353,0.36034 -11.62685,0.99946 -12.76126,0.90189 -0.21828,-0.0188 -2.00421,-0.12751 -3.96875,-0.24162 z"
         id="path889" />
    </g>
  </g>
</svg>
