<svg width="30" height="30" viewBox="0 0 30 30" fill="none" xmlns="http://www.w3.org/2000/svg">
<path fill-rule="evenodd" clip-rule="evenodd" d="M23.6786 0.666626H20.7619V3.58329H23.6786V0.666626ZM3.26176 3.58332H12.0118V6.49998H3.26176V26.9167H23.6785V18.1666H26.5952V29.8333H0.345093V26.9167V6.49998V3.58332H3.26176ZM9.0954 15.2499H6.17869V21.0833V23.9999L14.9287 24V21.0833H17.8451V18.1666H14.9284L14.9287 21.0833H9.0954V15.2499ZM14.9285 12.3333H12.0119V15.2499H9.0954L9.0953 12.3332L12.0119 12.3333L12.0118 9.4166H14.9284V6.49998H17.8451V9.4166H14.9284L14.9285 12.3333ZM17.8454 3.58332L20.7619 3.58329L20.7621 6.49998H17.8451L17.8454 3.58332ZM23.6786 3.58329L26.5952 3.58332V6.49998H29.5118V9.4166H26.5952V12.3333H23.6786V15.2499H20.7619V12.3332L23.6786 12.3333L23.6785 9.4166H26.5952V6.49998H23.6785L23.6786 3.58329ZM17.8454 15.2499H20.7619L20.7621 18.1666H17.8451L17.8454 15.2499Z" fill="#EEEDE6"/>
</svg>
